# xmcd
#
# Track frame offsets: 
#        150
#        15877
#        31887
#        47539
#        59878
#        93405
#        111904
#        127574
#        145496
#        166081
#        185052
#        198095
#        221005
#        236211
#        248898
#        264651
#        280509
#        300411
#        322316
#
# Disc length: 4526 seconds
#
# Revision: 0
# Processed by: cddbd v1.5.2PL0 Copyright (c) Steve Scherf et al.
# Submitted via: ExactAudioCopy v0.99pb5
#
DISCID=0d11ac13
DTITLE=Юрий Лоза - 39 Давно Любимых Вещей CD 2
DYEAR=2008
DGENRE=Ballad
TTITLE0=Над деревней Клюевкой
TTITLE1=Одиночество
TTITLE2=Подожди
TTITLE3=Заповедные места
TTITLE4=Июльской ночью
TTITLE5=Полночный блюз
TTITLE6=Зачем
TTITLE7=Резиновые дни
TTITLE8=Память
TTITLE9=Не принимай
TTITLE10=Ах какие ножки
TTITLE11=Смерть
TTITLE12=Иду в компанию
TTITLE13=Любовь
TTITLE14=Достала
TTITLE15=Визит
TTITLE16=Стерва
TTITLE17=Тоска
TTITLE18=Москва
EXTD=
EXTT0=
EXTT1=
EXTT2=
EXTT3=
EXTT4=
EXTT5=
EXTT6=
EXTT7=
EXTT8=
EXTT9=
EXTT10=
EXTT11=
EXTT12=
EXTT13=
EXTT14=
EXTT15=
EXTT16=
EXTT17=
EXTT18=
PLAYORDER=
